<svg xmlns="http://www.w3.org/2000/svg" width="25.969" height="10" viewBox="0 0 25.969 10">
  <metadata><?xpacket begin="﻿" id="W5M0MpCehiHzreSzNTczkc9d"?>
<x:xmpmeta xmlns:x="adobe:ns:meta/" x:xmptk="Adobe XMP Core 5.6-c138 79.159824, 2016/09/14-01:09:01        ">
   <rdf:RDF xmlns:rdf="http://www.w3.org/1999/02/22-rdf-syntax-ns#">
      <rdf:Description rdf:about=""/>
   </rdf:RDF>
</x:xmpmeta>
                                                                                                    
                                                                                                    
                                                                                                    
                                                                                                    
                                                                                                    
                                                                                                    
                                                                                                    
                                                                                                    
                                                                                                    
                                                                                                    
                                                                                                    
                                                                                                    
                                                                                                    
                                                                                                    
                                                                                                    
                                                                                                    
                                                                                                    
                                                                                                    
                                                                                                    
                                                                                                    
                           
<?xpacket end="w"?></metadata>
<defs>
    <style>
      .cls-1 {
        fill: #fff;
        fill-rule: evenodd;
      }
    </style>
  </defs>
  <path id="Rounded_Rectangle_12" data-name="Rounded Rectangle 12" class="cls-1" d="M23.18,8.157L16.209,4.278l-2.8,4.678a1.907,1.907,0,0,1-2.552.659,1.765,1.765,0,0,1-.684-2.46l3.736-6.238A1.907,1.907,0,0,1,16.459.259l8.588,4.779A1.765,1.765,0,0,1,25.732,7.5,1.908,1.908,0,0,1,23.18,8.157ZM0.8,4.476L10.382,9.81a1.614,1.614,0,0,0,2.16-.558,1.494,1.494,0,0,0-.579-2.081L2.379,1.837a1.614,1.614,0,0,0-2.16.558A1.494,1.494,0,0,0,.8,4.476Z"/>
</svg>
