<svg xmlns="http://www.w3.org/2000/svg" width="30" height="28" viewBox="0 0 30 28">
  <metadata><?xpacket begin="﻿" id="W5M0MpCehiHzreSzNTczkc9d"?>
<x:xmpmeta xmlns:x="adobe:ns:meta/" x:xmptk="Adobe XMP Core 5.6-c138 79.159824, 2016/09/14-01:09:01        ">
   <rdf:RDF xmlns:rdf="http://www.w3.org/1999/02/22-rdf-syntax-ns#">
      <rdf:Description rdf:about=""/>
   </rdf:RDF>
</x:xmpmeta>
                                                                                                    
                                                                                                    
                                                                                                    
                                                                                                    
                                                                                                    
                                                                                                    
                                                                                                    
                                                                                                    
                                                                                                    
                                                                                                    
                                                                                                    
                                                                                                    
                                                                                                    
                                                                                                    
                                                                                                    
                                                                                                    
                                                                                                    
                                                                                                    
                                                                                                    
                                                                                                    
                           
<?xpacket end="w"?></metadata>
<defs>
    <style>
      .cls-1 {
        fill: #fff;
        fill-rule: evenodd;
      }
    </style>
  </defs>
  <path class="cls-1" d="M29.781,10.258A1.591,1.591,0,0,1,28,11.029V25a3.176,3.176,0,0,1-2.861,3H25.022V9.376L14.938,3.427,5,9.339V28H4.8A3.117,3.117,0,0,1,2,25V11.023a1.572,1.572,0,0,1-1.783-.766A1.678,1.678,0,0,1,.778,8L13.93,0.173A1.49,1.49,0,0,1,14.938,0a1.513,1.513,0,0,1,1.017.17L29.216,8A1.67,1.67,0,0,1,29.781,10.258ZM9.5,10.981h11a1.5,1.5,0,0,1,0,3H9.5A1.5,1.5,0,0,1,9.5,10.981Zm0,6.006h11a1.5,1.5,0,0,1,0,3H9.5A1.5,1.5,0,0,1,9.5,16.987Zm0,6.006h11a1.5,1.5,0,0,1,0,3H9.5A1.5,1.5,0,0,1,9.5,22.994Z"/>
</svg>
