<svg xmlns="http://www.w3.org/2000/svg" width="31" height="31" viewBox="0 0 31 31">
  <defs>
    <style>
      .cls-1 {
        fill: #2da5d8;
        fill-rule: evenodd;
      }
    </style>
  </defs>
  <path id="Telegam" class="cls-1" d="M536.5,8397a15.5,15.5,0,1,1,15.5-15.5A15.5,15.5,0,0,1,536.5,8397Zm5.949-21.52-14.753,5.69a0.422,0.422,0,0,0,0,.79l3.595,1.34,1.391,4.48a0.426,0.426,0,0,0,.672.2l2-1.64a0.6,0.6,0,0,1,.729-0.02l3.614,2.63a0.426,0.426,0,0,0,.664-0.26l2.647-12.73A0.42,0.42,0,0,0,542.449,8375.48Zm-8.612,8.36a1.223,1.223,0,0,0-.372.72l-0.2,1.47a0.182,0.182,0,0,1-.355.02l-0.759-2.67a0.7,0.7,0,0,1,.309-0.79l7.026-4.33a0.12,0.12,0,0,1,.147.19Z" transform="translate(-521 -8366)"/>
</svg>
