<svg xmlns="http://www.w3.org/2000/svg" width="31" height="31" viewBox="0 0 31 31">
  <defs>
    <style>
      .cls-1 {
        fill: #7d519e;
        fill-rule: evenodd;
      }
    </style>
  </defs>
  <path id="Viber" class="cls-1" d="M584.5,8366H584.5a15.486,15.486,0,0,0-12.545,24.58l-1.932,5.76,5.958-1.9A15.5,15.5,0,1,0,584.5,8366Zm7.2,13.91a6.025,6.025,0,0,0-5.422-5.68l-0.2-.03a3.446,3.446,0,0,0-.459-0.05,0.77,0.77,0,0,0-.827.68,0.761,0.761,0,0,0,.12.61,1.216,1.216,0,0,0,.854.36c0.085,0.01.165,0.02,0.232,0.03,2.708,0.59,3.62,1.52,4.065,4.13,0.011,0.07.016,0.15,0.022,0.23a0.82,0.82,0,0,0,.777.96h0a1.268,1.268,0,0,0,.191-0.01,0.8,0.8,0,0,0,.638-0.98,1.435,1.435,0,0,1,0-.21A0.19,0.19,0,0,0,591.7,8379.91Zm-6.251-6.7c0.08,0.01.156,0.01,0.219,0.02,4.447,0.67,6.493,2.72,7.059,7.08a2.381,2.381,0,0,1,.013.26,0.877,0.877,0,0,0,.8,1.07h0.024a0.753,0.753,0,0,0,.58-0.22,1.149,1.149,0,0,0,.213-0.91c0-.07-0.007-0.14-0.006-0.2a8.934,8.934,0,0,0-8.491-8.66h-0.271a1.794,1.794,0,0,0-.237-0.01,0.79,0.79,0,0,0-.885.8A0.819,0.819,0,0,0,585.449,8373.21Zm7.064,12.74c-0.1-.07-0.193-0.14-0.284-0.21-0.486-.38-1-0.73-1.5-1.07l-0.311-.21a3.13,3.13,0,0,0-1.758-.65,2.281,2.281,0,0,0-1.9,1.17,1.019,1.019,0,0,1-.865.51,1.809,1.809,0,0,1-.7-0.17,8.27,8.27,0,0,1-4.384-4.16,1.341,1.341,0,0,1,.442-1.95,1.972,1.972,0,0,0,1.112-1.73c-0.061-1.09-2.531-4.37-3.572-4.74a2.1,2.1,0,0,0-1.379-.01,3.99,3.99,0,0,0-2.483,1.99,3.621,3.621,0,0,0,.054,2.99,24.022,24.022,0,0,0,5.426,8.04,26.185,26.185,0,0,0,8.231,5.32,4.991,4.991,0,0,0,.814.24c0.076,0.02.141,0.03,0.188,0.04a0.22,0.22,0,0,0,.08.01h0.026a4.654,4.654,0,0,0,3.878-2.87C594.118,8387.15,593.228,8386.49,592.513,8385.95Zm-6.4-9.19a0.922,0.922,0,0,0-.985.55,0.718,0.718,0,0,0,.032.64,1.024,1.024,0,0,0,.746.39,1.727,1.727,0,0,1,1.636,1.71,0.823,0.823,0,0,0,.794.8h0.094a0.865,0.865,0,0,0,.726-1.07,3.039,3.039,0,0,0-.98-2.08A2.964,2.964,0,0,0,586.116,8376.76Z" transform="translate(-569 -8366)"/>
</svg>
