<svg xmlns="http://www.w3.org/2000/svg" width="31" height="31" viewBox="0 0 31 31">
  <defs>
    <style>
      .cls-1 {
        fill: #22c67f;
        fill-rule: evenodd;
      }
    </style>
  </defs>
  <path id="Whatsapp" class="cls-1" d="M489.5,8365H489.5a15.486,15.486,0,0,0-12.545,24.58l-1.932,5.76,5.958-1.9A15.5,15.5,0,1,0,489.5,8365Zm9.019,21.89a4.366,4.366,0,0,1-3.042,2.18c-0.81.18-1.868,0.31-5.429-1.16-4.555-1.89-7.488-6.52-7.717-6.82a8.844,8.844,0,0,1-1.841-4.67,4.922,4.922,0,0,1,1.585-3.77,2.218,2.218,0,0,1,1.585-.56c0.192,0,.364.01,0.519,0.02a0.9,0.9,0,0,1,.985.76c0.374,0.9,1.284,3.13,1.393,3.36a0.9,0.9,0,0,1,.066.83,2.865,2.865,0,0,1-.5.72c-0.229.26-.446,0.46-0.674,0.74a0.735,0.735,0,0,0-.183.97,13.852,13.852,0,0,0,2.515,3.12,11.5,11.5,0,0,0,3.635,2.25,0.992,0.992,0,0,0,1.093-.18,18.03,18.03,0,0,0,1.211-1.6,0.869,0.869,0,0,1,1.112-.34c0.418,0.15,2.633,1.24,3.088,1.47a2.248,2.248,0,0,1,.866.53A3.852,3.852,0,0,1,498.523,8386.89Z" transform="translate(-474 -8365)"/>
</svg>
