<svg xmlns="http://www.w3.org/2000/svg" width="40" height="40" viewBox="0 0 40 40">
  <defs>
    <style>
      .cls-1 {
        fill: #fca325;
        fill-rule: evenodd;
      }
    </style>
  </defs>
  <path id="Викликати_замірника" data-name="Викликати замірника" class="cls-1" d="M1221.67,7687.33h-2.5a0.837,0.837,0,0,1-.84-0.83v-4.17h-7.39l0.48,0.48a0.827,0.827,0,0,1,0,1.18l-4.76,4.77a0.845,0.845,0,0,1-1.18,0l-6.42-6.43h-8.23a2.5,2.5,0,0,1-2.5-2.5v-8.23l-3.09-3.1a0.833,0.833,0,0,1,0-1.17l3.09-3.1v-6.08a2.5,2.5,0,0,1,2.5-2.5h19.54l5.94-5.95a2.519,2.519,0,0,1,3.48,0l1.15,1.15a2.454,2.454,0,0,1,.01,3.48h-0.01l-1.31,1.32h2.04a3.329,3.329,0,0,1,3.33,3.33V7684A3.329,3.329,0,0,1,1221.67,7687.33Zm-31.67-7.5a0.828,0.828,0,0,0,.83.83h6.56l-7.39-7.4v6.57Zm-2.99-11.92,19.06,19.08,3.58-3.59-2.27-2.27-1.79,1.79-1.18-1.18,1.79-1.79-2.15-2.16-1.8,1.79-1.18-1.18,1.8-1.79-2.16-2.16-1.79,1.8-1.18-1.18,1.79-1.79-2.15-2.16-1.79,1.79-1.18-1.18,1.79-1.79-2.15-2.16-1.8,1.8-1.18-1.18,1.8-1.8-2.28-2.27Zm18.4-4.94,2.27,2.27,9.19-9.19-2.27-2.28Zm-0.82,1.54-0.77,2.32,2.32-.77Zm15.18-11.36a0.791,0.791,0,0,0,0-1.12h0l-1.16-1.15a0.791,0.791,0,0,0-1.12,0l-1.72,1.71,2.28,2.28Zm3.56,5.83a1.664,1.664,0,0,0-1.66-1.67h-3.7l-9.7,9.7a0.721,0.721,0,0,1-.33.21h0l-0.3.1H1215v1.67h-12.5a0.837,0.837,0,0,1-.83-0.84,0.746,0.746,0,0,1,.04-0.26l1.73-5.19h0a0.723,0.723,0,0,1,.2-0.32l5.06-5.07h-17.87a0.837,0.837,0,0,0-.83.84v4.41a0.827,0.827,0,0,1,1.18,0l18.09,18.1h12.4a3.252,3.252,0,0,1,1.66.45v-22.13Zm-1.66,23.35H1220v3.33h1.67A1.665,1.665,0,0,0,1221.67,7682.33Zm-1.67-15.01h1.67v1.67H1220v-1.67Zm-3.33,0h1.66v1.67h-1.66v-1.67Z" transform="translate(-1185 -7649)"/>
</svg>
