<svg xmlns="http://www.w3.org/2000/svg" width="25" height="25" viewBox="0 0 25 25">
  <defs>
    <style>
      .cls-1 {
        fill: #e0e0e0;
        fill-rule: evenodd;
      }
    </style>
  </defs>
  <path id="_" data-name="?" class="cls-1" d="M878.094,7671.12a1.342,1.342,0,0,1,.98.41,1.406,1.406,0,0,1,.407,1.01,1.443,1.443,0,0,1-.407,1.04,1.363,1.363,0,0,1-1.968,0,1.457,1.457,0,0,1-.4-1.04,1.419,1.419,0,0,1,.4-1.01A1.335,1.335,0,0,1,878.094,7671.12Zm-0.239-6.98a5.436,5.436,0,0,0-2.852.93v-2.08a5.409,5.409,0,0,1,3.219-.98,4.113,4.113,0,0,1,2.661.89,2.887,2.887,0,0,1,1.116,2.42,2.832,2.832,0,0,1-.861,2.08,4.725,4.725,0,0,1-2.024,1.24v1.32h-2.135v-2.44a5.577,5.577,0,0,0,1.88-.78,1.576,1.576,0,0,0,.829-1.27,1.128,1.128,0,0,0-.5-0.99A2.389,2.389,0,0,0,877.855,7664.14ZM878.49,7680a12.508,12.508,0,0,1-11.02-18.41,1.138,1.138,0,0,1,2,1.08,10.218,10.218,0,1,0,6.727-5.15,1.14,1.14,0,0,1-.479-2.23,12.633,12.633,0,0,1,10.616,2.47A12.507,12.507,0,0,1,878.49,7680Z" transform="translate(-866 -7655)"/>
</svg>
