<svg xmlns="http://www.w3.org/2000/svg" width="27" height="20" viewBox="0 0 27 20">
  <defs>
    <style>
      .cls-1 {
        fill: #fff;
        fill-rule: evenodd;
      }
    </style>
  </defs>
  <path id="глаз" class="cls-1" d="M1086.5,5354c-9,0-13.5-9.95-13.5-9.95s4.5-10.05,13.5-10.05,13.5,10,13.5,10S1095.5,5354,1086.5,5354Zm0-17.78c-5.95,0-9.7,5.59-10.97,7.82,1.27,2.21,5.02,7.74,10.97,7.74s9.7-5.55,10.97-7.78C1096.2,5341.78,1092.45,5336.22,1086.5,5336.22Zm0,12.22a4.44,4.44,0,1,1,4.5-4.44A4.469,4.469,0,0,1,1086.5,5348.44Zm0-6.66a2.22,2.22,0,1,0,2.25,2.22A2.234,2.234,0,0,0,1086.5,5341.78Z" transform="translate(-1073 -5334)"/>
</svg>
